<svg xmlns="http://www.w3.org/2000/svg" xmlns:xlink="http://www.w3.org/1999/xlink" contentStyleType="text/css" height="457px" preserveAspectRatio="none" style="width:708px;height:457px;background:#FFFFFF;" version="1.1" viewBox="0 0 708 457" width="708px" zoomAndPan="magnify"><defs/><g><rect fill="none" height="132.3359" style="stroke:#000000;stroke-width:1.5;" width="691.9395" x="10" y="227.8281"/><line style="stroke:#181818;stroke-width:0.5;stroke-dasharray:5.0,5.0;" x1="45" x2="45" y1="81.2969" y2="377.1641"/><line style="stroke:#181818;stroke-width:0.5;stroke-dasharray:5.0,5.0;" x1="431.4946" x2="431.4946" y1="81.2969" y2="377.1641"/><text fill="#000000" font-family="sans-serif" font-size="14" lengthAdjust="spacing" textLength="44.8643" x="20" y="77.9951">Admin</text><ellipse cx="45.4321" cy="13.5" fill="#E2E2F0" rx="8" ry="8" style="stroke:#181818;stroke-width:0.5;"/><path d="M45.4321,21.5 L45.4321,48.5 M32.4321,29.5 L58.4321,29.5 M45.4321,48.5 L32.4321,63.5 M45.4321,48.5 L58.4321,63.5 " fill="none" style="stroke:#181818;stroke-width:0.5;"/><text fill="#000000" font-family="sans-serif" font-size="14" lengthAdjust="spacing" textLength="44.8643" x="20" y="389.1592">Admin</text><ellipse cx="45.4321" cy="400.9609" fill="#E2E2F0" rx="8" ry="8" style="stroke:#181818;stroke-width:0.5;"/><path d="M45.4321,408.9609 L45.4321,435.9609 M32.4321,416.9609 L58.4321,416.9609 M45.4321,435.9609 L32.4321,450.9609 M45.4321,435.9609 L58.4321,450.9609 " fill="none" style="stroke:#181818;stroke-width:0.5;"/><rect fill="#E2E2F0" height="30.2969" rx="2.5" ry="2.5" style="stroke:#181818;stroke-width:0.5;" width="66.2061" x="398.4946" y="50"/><text fill="#000000" font-family="sans-serif" font-size="14" lengthAdjust="spacing" textLength="52.2061" x="405.4946" y="69.9951">System</text><rect fill="#E2E2F0" height="30.2969" rx="2.5" ry="2.5" style="stroke:#181818;stroke-width:0.5;" width="66.2061" x="398.4946" y="376.1641"/><text fill="#000000" font-family="sans-serif" font-size="14" lengthAdjust="spacing" textLength="52.2061" x="405.4946" y="396.1592">System</text><polygon fill="#181818" points="419.5977,108.4297,429.5977,112.4297,419.5977,116.4297,423.5977,112.4297" style="stroke:#181818;stroke-width:1.0;"/><line style="stroke:#181818;stroke-width:1.0;" x1="45.4321" x2="425.5977" y1="112.4297" y2="112.4297"/><text fill="#000000" font-family="sans-serif" font-size="13" lengthAdjust="spacing" textLength="178.6357" x="52.4321" y="107.3638">"Search for operation type"</text><polygon fill="#181818" points="56.4321,137.5625,46.4321,141.5625,56.4321,145.5625,52.4321,141.5625" style="stroke:#181818;stroke-width:1.0;"/><line style="stroke:#181818;stroke-width:1.0;" x1="50.4321" x2="430.5977" y1="141.5625" y2="141.5625"/><text fill="#000000" font-family="sans-serif" font-size="13" lengthAdjust="spacing" textLength="207.0415" x="62.4321" y="136.4966">"Display operation type details"</text><polygon fill="#181818" points="419.5977,166.6953,429.5977,170.6953,419.5977,174.6953,423.5977,170.6953" style="stroke:#181818;stroke-width:1.0;"/><line style="stroke:#181818;stroke-width:1.0;" x1="45.4321" x2="425.5977" y1="170.6953" y2="170.6953"/><text fill="#000000" font-family="sans-serif" font-size="13" lengthAdjust="spacing" textLength="362.1655" x="52.4321" y="165.6294">"Edit operation details (name, specialization, duration)"</text><line style="stroke:#181818;stroke-width:1.0;" x1="431.5977" x2="473.5977" y1="199.8281" y2="199.8281"/><line style="stroke:#181818;stroke-width:1.0;" x1="473.5977" x2="473.5977" y1="199.8281" y2="212.8281"/><line style="stroke:#181818;stroke-width:1.0;" x1="432.5977" x2="473.5977" y1="212.8281" y2="212.8281"/><polygon fill="#181818" points="442.5977,208.8281,432.5977,212.8281,442.5977,216.8281,438.5977,212.8281" style="stroke:#181818;stroke-width:1.0;"/><text fill="#000000" font-family="sans-serif" font-size="13" lengthAdjust="spacing" textLength="136.3413" x="438.5977" y="194.7622">"Validate input data"</text><path d="M10,227.8281 L79.4512,227.8281 L79.4512,234.9609 L69.4512,244.9609 L10,244.9609 L10,227.8281 " fill="#EEEEEE" style="stroke:#000000;stroke-width:1.5;"/><rect fill="none" height="132.3359" style="stroke:#000000;stroke-width:1.5;" width="691.9395" x="10" y="227.8281"/><text fill="#000000" font-family="sans-serif" font-size="13" font-weight="bold" lengthAdjust="spacing" textLength="24.4512" x="25" y="240.895">opt</text><text fill="#000000" font-family="sans-serif" font-size="11" font-weight="bold" lengthAdjust="spacing" textLength="142.812" x="94.4512" y="240.0386">[Validation Successful]</text><line style="stroke:#181818;stroke-width:1.0;" x1="431.5977" x2="473.5977" y1="266.0938" y2="266.0938"/><line style="stroke:#181818;stroke-width:1.0;" x1="473.5977" x2="473.5977" y1="266.0938" y2="279.0938"/><line style="stroke:#181818;stroke-width:1.0;" x1="432.5977" x2="473.5977" y1="279.0938" y2="279.0938"/><polygon fill="#181818" points="442.5977,275.0938,432.5977,279.0938,442.5977,283.0938,438.5977,279.0938" style="stroke:#181818;stroke-width:1.0;"/><text fill="#000000" font-family="sans-serif" font-size="13" lengthAdjust="spacing" textLength="251.3418" x="438.5977" y="261.0278">"Update operation type in the system"</text><polygon fill="#181818" points="56.4321,304.2266,46.4321,308.2266,56.4321,312.2266,52.4321,308.2266" style="stroke:#181818;stroke-width:1.0;"/><line style="stroke:#181818;stroke-width:1.0;" x1="50.4321" x2="430.5977" y1="308.2266" y2="308.2266"/><text fill="#000000" font-family="sans-serif" font-size="13" lengthAdjust="spacing" textLength="247.7046" x="62.4321" y="303.1606">"Confirm changes successfully saved"</text><line style="stroke:#000000;stroke-width:1.0;stroke-dasharray:2.0,2.0;" x1="10" x2="701.9395" y1="317.2266" y2="317.2266"/><text fill="#000000" font-family="sans-serif" font-size="11" font-weight="bold" lengthAdjust="spacing" textLength="114.8877" x="15" y="327.437">[Validation Failed]</text><polygon fill="#181818" points="56.4321,348.1641,46.4321,352.1641,56.4321,356.1641,52.4321,352.1641" style="stroke:#181818;stroke-width:1.0;"/><line style="stroke:#181818;stroke-width:1.0;" x1="50.4321" x2="430.5977" y1="352.1641" y2="352.1641"/><text fill="#000000" font-family="sans-serif" font-size="13" lengthAdjust="spacing" textLength="164.1313" x="62.4321" y="347.0981">"Display validation error"</text><!--SRC=[NP1DRiGW38NtdC9YrKhJ2tHHgUhF1QBftWAdiKG0OJDIUleI9csYi07vVUyP6vsc0lRLpnmje40r6OkouunHmGwBACrT6OofyFG20potEc5n4upDd38LL4uHTCbapR12TONUMNB0vKI09qKEOezv7vxrm6q8F4ISwGAIoJ46_kdg1NozSuzRjnxnrG2FIi0nLuNsH6jILjY4DNUepf78M8E1TdRpDNVhwQVSxeb0xalOBNswjnH7BZEu2UCt2SX_TbX0y4RU6Wf2n_wVRIhofw2_DTrsZaf9fTcZ_mK0]--></g></svg>