<svg xmlns="http://www.w3.org/2000/svg" xmlns:xlink="http://www.w3.org/1999/xlink" contentStyleType="text/css" height="467px" preserveAspectRatio="none" style="width:475px;height:467px;background:#FFFFFF;" version="1.1" viewBox="0 0 475 467" width="475px" zoomAndPan="magnify"><defs/><g><line style="stroke:#181818;stroke-width:0.5;stroke-dasharray:5.0,5.0;" x1="30" x2="30" y1="81.2969" y2="386.3594"/><line style="stroke:#181818;stroke-width:0.5;stroke-dasharray:5.0,5.0;" x1="275.1387" x2="275.1387" y1="81.2969" y2="386.3594"/><text fill="#000000" font-family="sans-serif" font-size="14" lengthAdjust="spacing" textLength="44.8643" x="5" y="77.9951">Admin</text><ellipse cx="30.4321" cy="13.5" fill="#E2E2F0" rx="8" ry="8" style="stroke:#181818;stroke-width:0.5;"/><path d="M30.4321,21.5 L30.4321,48.5 M17.4321,29.5 L43.4321,29.5 M30.4321,48.5 L17.4321,63.5 M30.4321,48.5 L43.4321,63.5 " fill="none" style="stroke:#181818;stroke-width:0.5;"/><text fill="#000000" font-family="sans-serif" font-size="14" lengthAdjust="spacing" textLength="44.8643" x="5" y="398.3545">Admin</text><ellipse cx="30.4321" cy="410.1563" fill="#E2E2F0" rx="8" ry="8" style="stroke:#181818;stroke-width:0.5;"/><path d="M30.4321,418.1563 L30.4321,445.1563 M17.4321,426.1563 L43.4321,426.1563 M30.4321,445.1563 L17.4321,460.1563 M30.4321,445.1563 L43.4321,460.1563 " fill="none" style="stroke:#181818;stroke-width:0.5;"/><rect fill="#E2E2F0" height="30.2969" rx="2.5" ry="2.5" style="stroke:#181818;stroke-width:0.5;" width="66.2061" x="242.1387" y="50"/><text fill="#000000" font-family="sans-serif" font-size="14" lengthAdjust="spacing" textLength="52.2061" x="249.1387" y="69.9951">System</text><rect fill="#E2E2F0" height="30.2969" rx="2.5" ry="2.5" style="stroke:#181818;stroke-width:0.5;" width="66.2061" x="242.1387" y="385.3594"/><text fill="#000000" font-family="sans-serif" font-size="14" lengthAdjust="spacing" textLength="52.2061" x="249.1387" y="405.3545">System</text><polygon fill="#181818" points="263.2417,108.4297,273.2417,112.4297,263.2417,116.4297,267.2417,112.4297" style="stroke:#181818;stroke-width:1.0;"/><line style="stroke:#181818;stroke-width:1.0;" x1="30.4321" x2="269.2417" y1="112.4297" y2="112.4297"/><text fill="#000000" font-family="sans-serif" font-size="13" lengthAdjust="spacing" textLength="157.5171" x="37.4321" y="107.3638">"Search for staff profile"</text><line style="stroke:#181818;stroke-width:1.0;" x1="275.2417" x2="317.2417" y1="141.5625" y2="141.5625"/><line style="stroke:#181818;stroke-width:1.0;" x1="317.2417" x2="317.2417" y1="141.5625" y2="154.5625"/><line style="stroke:#181818;stroke-width:1.0;" x1="276.2417" x2="317.2417" y1="154.5625" y2="154.5625"/><polygon fill="#181818" points="286.2417,150.5625,276.2417,154.5625,286.2417,158.5625,282.2417,154.5625" style="stroke:#181818;stroke-width:1.0;"/><text fill="#000000" font-family="sans-serif" font-size="13" lengthAdjust="spacing" textLength="152.1089" x="282.2417" y="136.4966">"Retrieve staff profiles"</text><polygon fill="#181818" points="41.4321,179.6953,31.4321,183.6953,41.4321,187.6953,37.4321,183.6953" style="stroke:#181818;stroke-width:1.0;"/><line style="stroke:#181818;stroke-width:1.0;" x1="35.4321" x2="274.2417" y1="183.6953" y2="183.6953"/><text fill="#000000" font-family="sans-serif" font-size="13" lengthAdjust="spacing" textLength="145.2534" x="47.4321" y="178.6294">"Display staff profiles"</text><polygon fill="#181818" points="263.2417,208.8281,273.2417,212.8281,263.2417,216.8281,267.2417,212.8281" style="stroke:#181818;stroke-width:1.0;"/><line style="stroke:#181818;stroke-width:1.0;" x1="30.4321" x2="269.2417" y1="212.8281" y2="212.8281"/><text fill="#000000" font-family="sans-serif" font-size="13" lengthAdjust="spacing" textLength="220.8096" x="37.4321" y="207.7622">"Select staff profile to deactivate"</text><line style="stroke:#181818;stroke-width:1.0;" x1="275.2417" x2="317.2417" y1="241.9609" y2="241.9609"/><line style="stroke:#181818;stroke-width:1.0;" x1="317.2417" x2="317.2417" y1="241.9609" y2="254.9609"/><line style="stroke:#181818;stroke-width:1.0;" x1="276.2417" x2="317.2417" y1="254.9609" y2="254.9609"/><polygon fill="#181818" points="286.2417,250.9609,276.2417,254.9609,286.2417,258.9609,282.2417,254.9609" style="stroke:#181818;stroke-width:1.0;"/><text fill="#000000" font-family="sans-serif" font-size="13" lengthAdjust="spacing" textLength="171.1138" x="282.2417" y="236.895">"Verify admin credentials"</text><line style="stroke:#181818;stroke-width:1.0;" x1="275.2417" x2="317.2417" y1="284.0938" y2="284.0938"/><line style="stroke:#181818;stroke-width:1.0;" x1="317.2417" x2="317.2417" y1="284.0938" y2="297.0938"/><line style="stroke:#181818;stroke-width:1.0;" x1="276.2417" x2="317.2417" y1="297.0938" y2="297.0938"/><polygon fill="#181818" points="286.2417,293.0938,276.2417,297.0938,286.2417,301.0938,282.2417,297.0938" style="stroke:#181818;stroke-width:1.0;"/><text fill="#000000" font-family="sans-serif" font-size="13" lengthAdjust="spacing" textLength="161.1479" x="282.2417" y="279.0278">"Deactivate staff profile"</text><line style="stroke:#181818;stroke-width:1.0;" x1="275.2417" x2="317.2417" y1="326.2266" y2="326.2266"/><line style="stroke:#181818;stroke-width:1.0;" x1="317.2417" x2="317.2417" y1="326.2266" y2="339.2266"/><line style="stroke:#181818;stroke-width:1.0;" x1="276.2417" x2="317.2417" y1="339.2266" y2="339.2266"/><polygon fill="#181818" points="286.2417,335.2266,276.2417,339.2266,286.2417,343.2266,282.2417,339.2266" style="stroke:#181818;stroke-width:1.0;"/><text fill="#000000" font-family="sans-serif" font-size="13" lengthAdjust="spacing" textLength="186.6021" x="282.2417" y="321.1606">"Record deactivation action"</text><polygon fill="#181818" points="41.4321,364.3594,31.4321,368.3594,41.4321,372.3594,37.4321,368.3594" style="stroke:#181818;stroke-width:1.0;"/><line style="stroke:#181818;stroke-width:1.0;" x1="35.4321" x2="274.2417" y1="368.3594" y2="368.3594"/><text fill="#000000" font-family="sans-serif" font-size="13" lengthAdjust="spacing" textLength="197.7231" x="47.4321" y="363.2935">"Confirmation of deactivation"</text><!--SRC=[VS_12i8m30RWUvyYzEuBU134FO45xw5DCT2r9Ss4lRsRobmHl8Na2t-2Nek0FOUHimLiC9cAekovObQmRcvAuslYZ9dWS087nwLFAFuESLbkYZ52bH8vaJLkCrTIONfGBzg7J2iPkDM4yu_eaX9vxGLeWK3ebH-eNUQDXECCkFu3NYXGLiRKzcRODl_Txek4RmYN36jPylxyIycHPNoFI-ouVG80]--></g></svg>