<svg xmlns="http://www.w3.org/2000/svg" xmlns:xlink="http://www.w3.org/1999/xlink" contentStyleType="text/css" height="441px" preserveAspectRatio="none" style="width:478px;height:441px;background:#FFFFFF;" version="1.1" viewBox="0 0 478 441" width="478px" zoomAndPan="magnify"><defs/><g><rect fill="none" height="132.3359" style="stroke:#000000;stroke-width:1.5;" width="452.4741" x="10" y="211.6953"/><line style="stroke:#181818;stroke-width:0.5;stroke-dasharray:5.0,5.0;" x1="45" x2="45" y1="81.2969" y2="361.0313"/><line style="stroke:#181818;stroke-width:0.5;stroke-dasharray:5.0,5.0;" x1="292.8237" x2="292.8237" y1="81.2969" y2="361.0313"/><text fill="#000000" font-family="sans-serif" font-size="14" lengthAdjust="spacing" textLength="44.8643" x="20" y="77.9951">Admin</text><ellipse cx="45.4321" cy="13.5" fill="#E2E2F0" rx="8" ry="8" style="stroke:#181818;stroke-width:0.5;"/><path d="M45.4321,21.5 L45.4321,48.5 M32.4321,29.5 L58.4321,29.5 M45.4321,48.5 L32.4321,63.5 M45.4321,48.5 L58.4321,63.5 " fill="none" style="stroke:#181818;stroke-width:0.5;"/><text fill="#000000" font-family="sans-serif" font-size="14" lengthAdjust="spacing" textLength="44.8643" x="20" y="373.0264">Admin</text><ellipse cx="45.4321" cy="384.8281" fill="#E2E2F0" rx="8" ry="8" style="stroke:#181818;stroke-width:0.5;"/><path d="M45.4321,392.8281 L45.4321,419.8281 M32.4321,400.8281 L58.4321,400.8281 M45.4321,419.8281 L32.4321,434.8281 M45.4321,419.8281 L58.4321,434.8281 " fill="none" style="stroke:#181818;stroke-width:0.5;"/><rect fill="#E2E2F0" height="30.2969" rx="2.5" ry="2.5" style="stroke:#181818;stroke-width:0.5;" width="66.2061" x="259.8237" y="50"/><text fill="#000000" font-family="sans-serif" font-size="14" lengthAdjust="spacing" textLength="52.2061" x="266.8237" y="69.9951">System</text><rect fill="#E2E2F0" height="30.2969" rx="2.5" ry="2.5" style="stroke:#181818;stroke-width:0.5;" width="66.2061" x="259.8237" y="360.0313"/><text fill="#000000" font-family="sans-serif" font-size="14" lengthAdjust="spacing" textLength="52.2061" x="266.8237" y="380.0264">System</text><polygon fill="#181818" points="280.9268,108.4297,290.9268,112.4297,280.9268,116.4297,284.9268,112.4297" style="stroke:#181818;stroke-width:1.0;"/><line style="stroke:#181818;stroke-width:1.0;" x1="45.4321" x2="286.9268" y1="112.4297" y2="112.4297"/><text fill="#000000" font-family="sans-serif" font-size="13" lengthAdjust="spacing" textLength="223.4946" x="52.4321" y="107.3638">"Request to delete patient profile"</text><line style="stroke:#181818;stroke-width:1.0;" x1="292.9268" x2="334.9268" y1="141.5625" y2="141.5625"/><line style="stroke:#181818;stroke-width:1.0;" x1="334.9268" x2="334.9268" y1="141.5625" y2="154.5625"/><line style="stroke:#181818;stroke-width:1.0;" x1="293.9268" x2="334.9268" y1="154.5625" y2="154.5625"/><polygon fill="#181818" points="303.9268,150.5625,293.9268,154.5625,303.9268,158.5625,299.9268,154.5625" style="stroke:#181818;stroke-width:1.0;"/><text fill="#000000" font-family="sans-serif" font-size="13" lengthAdjust="spacing" textLength="171.1138" x="299.9268" y="136.4966">"Verify admin credentials"</text><line style="stroke:#181818;stroke-width:1.0;" x1="292.9268" x2="334.9268" y1="183.6953" y2="183.6953"/><line style="stroke:#181818;stroke-width:1.0;" x1="334.9268" x2="334.9268" y1="183.6953" y2="196.6953"/><line style="stroke:#181818;stroke-width:1.0;" x1="293.9268" x2="334.9268" y1="196.6953" y2="196.6953"/><polygon fill="#181818" points="303.9268,192.6953,293.9268,196.6953,303.9268,200.6953,299.9268,196.6953" style="stroke:#181818;stroke-width:1.0;"/><text fill="#000000" font-family="sans-serif" font-size="13" lengthAdjust="spacing" textLength="151.2393" x="299.9268" y="178.6294">"Locate patient profile"</text><path d="M10,211.6953 L74.4429,211.6953 L74.4429,218.8281 L64.4429,228.8281 L10,228.8281 L10,211.6953 " fill="#EEEEEE" style="stroke:#000000;stroke-width:1.5;"/><rect fill="none" height="132.3359" style="stroke:#000000;stroke-width:1.5;" width="452.4741" x="10" y="211.6953"/><text fill="#000000" font-family="sans-serif" font-size="13" font-weight="bold" lengthAdjust="spacing" textLength="19.4429" x="25" y="224.7622">alt</text><text fill="#000000" font-family="sans-serif" font-size="11" font-weight="bold" lengthAdjust="spacing" textLength="139.2993" x="89.4429" y="223.9058">[Patient profile found]</text><line style="stroke:#181818;stroke-width:1.0;" x1="292.9268" x2="334.9268" y1="249.9609" y2="249.9609"/><line style="stroke:#181818;stroke-width:1.0;" x1="334.9268" x2="334.9268" y1="249.9609" y2="262.9609"/><line style="stroke:#181818;stroke-width:1.0;" x1="293.9268" x2="334.9268" y1="262.9609" y2="262.9609"/><polygon fill="#181818" points="303.9268,258.9609,293.9268,262.9609,303.9268,266.9609,299.9268,262.9609" style="stroke:#181818;stroke-width:1.0;"/><text fill="#000000" font-family="sans-serif" font-size="13" lengthAdjust="spacing" textLength="150.5474" x="299.9268" y="244.895">"Delete patient profile"</text><polygon fill="#181818" points="56.4321,288.0938,46.4321,292.0938,56.4321,296.0938,52.4321,292.0938" style="stroke:#181818;stroke-width:1.0;"/><line style="stroke:#181818;stroke-width:1.0;" x1="50.4321" x2="291.9268" y1="292.0938" y2="292.0938"/><text fill="#000000" font-family="sans-serif" font-size="13" lengthAdjust="spacing" textLength="169.8506" x="62.4321" y="287.0278">"Confirmation of deletion"</text><line style="stroke:#000000;stroke-width:1.0;stroke-dasharray:2.0,2.0;" x1="10" x2="462.4741" y1="301.0938" y2="301.0938"/><text fill="#000000" font-family="sans-serif" font-size="11" font-weight="bold" lengthAdjust="spacing" textLength="163.7754" x="15" y="311.3042">[Patient profile not found]</text><polygon fill="#181818" points="56.4321,332.0313,46.4321,336.0313,56.4321,340.0313,52.4321,336.0313" style="stroke:#181818;stroke-width:1.0;"/><line style="stroke:#181818;stroke-width:1.0;" x1="50.4321" x2="291.9268" y1="336.0313" y2="336.0313"/><text fill="#000000" font-family="sans-serif" font-size="13" lengthAdjust="spacing" textLength="210.8184" x="62.4321" y="330.9653">"Error: Patient profile not found"</text><!--SRC=[TOw_QWCn3CPtFyM7zxn0Xa18ksKeESWkpZ8OVDPLbeTx-pW9NDCsfqb8l-yFZIOAVmnJAXvKqTnCQcbCCnM37vPgF3q-WtCDkmC6xE4l_Dsu6amGEBCnPhB4NJAhn9JPks65hwmfBg1x24RbqBb4kRuoPndfdGjbmzVl8wAq4Xpw_EW_DbgiLBjJ9oanwTGXAP3uxDvtxpXN_XTKnFw6FMm-LKNtstYtA-46]--></g></svg>