<svg xmlns="http://www.w3.org/2000/svg" xmlns:xlink="http://www.w3.org/1999/xlink" contentStyleType="text/css" height="451px" preserveAspectRatio="none" style="width:503px;height:451px;background:#FFFFFF;" version="1.1" viewBox="0 0 503 451" width="503px" zoomAndPan="magnify"><title>System Sequence Diagram (SSD) - Create a Staff Member as Admin</title><defs/><g><text fill="#000000" font-family="sans-serif" font-size="14" font-weight="bold" lengthAdjust="spacing" textLength="448.916" x="28.0432" y="30.1074">System Sequence Diagram (SSD) - Create a Staff Member as Admin</text><rect fill="#FFFFFF" height="225.0078" style="stroke:#181818;stroke-width:1.0;" width="10" x="47.8413" y="133.2422"/><rect fill="#FFFFFF" height="201.7168" style="stroke:#181818;stroke-width:1.0;" width="10" x="440.6646" y="156.5332"/><rect fill="none" height="179.7168" style="stroke:#000000;stroke-width:1.5;" width="486.0024" x="10" y="171.5332"/><rect fill="none" height="98.5039" style="stroke:#000000;stroke-width:1.5;" width="466.0024" x="20" y="245.7461"/><line style="stroke:#181818;stroke-width:0.5;stroke-dasharray:5.0,5.0;" x1="52" x2="52" y1="123.2422" y2="368.25"/><line style="stroke:#181818;stroke-width:0.5;stroke-dasharray:5.0,5.0;" x1="445.3267" x2="445.3267" y1="123.2422" y2="368.25"/><text fill="#000000" font-family="sans-serif" font-size="14" lengthAdjust="spacing" textLength="39.6826" x="30" y="119.7285">Admin</text><ellipse cx="52.8413" cy="53.1211" fill="#E3E3E3" rx="8" ry="8" style="stroke:#181818;stroke-width:0.5;"/><path d="M52.8413,61.1211 L52.8413,88.1211 M39.8413,69.1211 L65.8413,69.1211 M52.8413,88.1211 L39.8413,103.1211 M52.8413,88.1211 L65.8413,103.1211 " fill="none" style="stroke:#181818;stroke-width:0.5;"/><text fill="#000000" font-family="sans-serif" font-size="14" lengthAdjust="spacing" textLength="39.6826" x="30" y="382.3574">Admin</text><ellipse cx="52.8413" cy="394.3711" fill="#E3E3E3" rx="8" ry="8" style="stroke:#181818;stroke-width:0.5;"/><path d="M52.8413,402.3711 L52.8413,429.3711 M39.8413,410.3711 L65.8413,410.3711 M52.8413,429.3711 L39.8413,444.3711 M52.8413,429.3711 L65.8413,444.3711 " fill="none" style="stroke:#181818;stroke-width:0.5;"/><rect fill="#E3E3E3" height="32.6211" rx="2.5" ry="2.5" style="stroke:#181818;stroke-width:0.5;" width="60.6758" x="415.3267" y="89.6211"/><text fill="#000000" font-family="sans-serif" font-size="14" lengthAdjust="spacing" textLength="46.6758" x="422.3267" y="111.7285">System</text><rect fill="#E3E3E3" height="32.6211" rx="2.5" ry="2.5" style="stroke:#181818;stroke-width:0.5;" width="60.6758" x="415.3267" y="367.25"/><text fill="#000000" font-family="sans-serif" font-size="14" lengthAdjust="spacing" textLength="46.6758" x="422.3267" y="389.3574">System</text><rect fill="#FFFFFF" height="225.0078" style="stroke:#181818;stroke-width:1.0;" width="10" x="47.8413" y="133.2422"/><rect fill="#FFFFFF" height="201.7168" style="stroke:#181818;stroke-width:1.0;" width="10" x="440.6646" y="156.5332"/><polygon fill="#181818" points="428.6646,152.5332,438.6646,156.5332,428.6646,160.5332,432.6646,156.5332" style="stroke:#181818;stroke-width:1.0;"/><line style="stroke:#181818;stroke-width:1.0;" x1="57.8413" x2="434.6646" y1="156.5332" y2="156.5332"/><text fill="#000000" font-family="sans-serif" font-size="13" font-weight="bold" lengthAdjust="spacing" textLength="7.23" x="64.8413" y="151.2705">1</text><text fill="#000000" font-family="sans-serif" font-size="13" lengthAdjust="spacing" textLength="352.5933" x="76.0713" y="151.2705">sends a POST request to create a staff member (with details)</text><path d="M10,171.5332 L70.1709,171.5332 L70.1709,180.8242 L60.1709,190.8242 L10,190.8242 L10,171.5332 " fill="#EEEEEE" style="stroke:#000000;stroke-width:1.5;"/><rect fill="none" height="179.7168" style="stroke:#000000;stroke-width:1.5;" width="486.0024" x="10" y="171.5332"/><text fill="#000000" font-family="sans-serif" font-size="13" font-weight="bold" lengthAdjust="spacing" textLength="15.1709" x="25" y="186.5615">alt</text><text fill="#000000" font-family="sans-serif" font-size="11" font-weight="bold" lengthAdjust="spacing" textLength="127.1284" x="85.1709" y="185.4033">[Missing required fields]</text><polygon fill="#181818" points="68.8413,210.1152,58.8413,214.1152,68.8413,218.1152,64.8413,214.1152" style="stroke:#181818;stroke-width:1.0;"/><line style="stroke:#181818;stroke-width:1.0;stroke-dasharray:2.0,2.0;" x1="62.8413" x2="439.6646" y1="214.1152" y2="214.1152"/><text fill="#000000" font-family="sans-serif" font-size="13" font-weight="bold" lengthAdjust="spacing" textLength="7.23" x="74.8413" y="208.8525">2</text><text fill="#000000" font-family="sans-serif" font-size="13" lengthAdjust="spacing" textLength="190.7598" x="86.0713" y="208.8525">400 Bad Request (missing fields)</text><line style="stroke:#000000;stroke-width:1.0;stroke-dasharray:2.0,2.0;" x1="10" x2="496.0024" y1="223.1152" y2="223.1152"/><text fill="#000000" font-family="sans-serif" font-size="11" font-weight="bold" lengthAdjust="spacing" textLength="81.2915" x="15" y="234.9854">[All fields valid]</text><path d="M20,245.7461 L80.1709,245.7461 L80.1709,255.0371 L70.1709,265.0371 L20,265.0371 L20,245.7461 " fill="#EEEEEE" style="stroke:#000000;stroke-width:1.5;"/><rect fill="none" height="98.5039" style="stroke:#000000;stroke-width:1.5;" width="466.0024" x="20" y="245.7461"/><text fill="#000000" font-family="sans-serif" font-size="13" font-weight="bold" lengthAdjust="spacing" textLength="15.1709" x="35" y="260.7744">alt</text><text fill="#000000" font-family="sans-serif" font-size="11" font-weight="bold" lengthAdjust="spacing" textLength="107.5991" x="95.1709" y="259.6162">[Staff already exists]</text><polygon fill="#181818" points="68.8413,284.3281,58.8413,288.3281,68.8413,292.3281,64.8413,288.3281" style="stroke:#181818;stroke-width:1.0;"/><line style="stroke:#181818;stroke-width:1.0;stroke-dasharray:2.0,2.0;" x1="62.8413" x2="439.6646" y1="288.3281" y2="288.3281"/><text fill="#000000" font-family="sans-serif" font-size="13" font-weight="bold" lengthAdjust="spacing" textLength="7.23" x="74.8413" y="283.0654">3</text><text fill="#000000" font-family="sans-serif" font-size="13" lengthAdjust="spacing" textLength="161.1353" x="86.0713" y="283.0654">409 Conflict (duplicate staff)</text><line style="stroke:#000000;stroke-width:1.0;stroke-dasharray:2.0,2.0;" x1="20" x2="486.0024" y1="297.3281" y2="297.3281"/><text fill="#000000" font-family="sans-serif" font-size="11" font-weight="bold" lengthAdjust="spacing" textLength="108.7861" x="25" y="309.1982">[Staff does not exist]</text><polygon fill="#181818" points="68.8413,332.25,58.8413,336.25,68.8413,340.25,64.8413,336.25" style="stroke:#181818;stroke-width:1.0;"/><line style="stroke:#181818;stroke-width:1.0;stroke-dasharray:2.0,2.0;" x1="62.8413" x2="439.6646" y1="336.25" y2="336.25"/><text fill="#000000" font-family="sans-serif" font-size="13" font-weight="bold" lengthAdjust="spacing" textLength="7.23" x="74.8413" y="330.9873">4</text><text fill="#000000" font-family="sans-serif" font-size="13" lengthAdjust="spacing" textLength="177.0361" x="86.0713" y="330.9873">201 Created (new staff details)</text><!--SRC=[TL7BJiCm4BpxArOz9OTA1N6X1wJINYiGWGzOx4rhrR53TjFIlyUFK2gaHdAqsfsT6O_vO7sF0tRG1H_qVWWTWGmZARvCUjG7t54ZPqSma1RqEtSDu3sQSB9-1oqw9gN4IeGsPnRgeA6laRmcs5ZS9NZLD9iQvh0U28K0eH5iMzXIzqa38CFATDOhXQC4FwPchBM40MPvCakO3uxjA2zMsnwzmAp8vM4fyvOz9esCLkaFywTfl0GcRpZglxuqx_5YqIOBI03zQuopiQuOgqvMzc18q3gk_xWlOavWQvbJ3edC3cIWjUGCAuZV5CSy6aX6bl2mMC0p6dYRbAjksYvBjQ8O9goScnfmH6UDocH9hCI6BherPw1lorAKRgWzmZhurbaTfSpOnoBPptUiyrxMAwmc48CFKcXlizulxgPtD51vEasHNLBAjDweT9IX_w5TTV8J_G00]--></g></svg>