<svg xmlns="http://www.w3.org/2000/svg" xmlns:xlink="http://www.w3.org/1999/xlink" contentStyleType="text/css" height="748px" preserveAspectRatio="none" style="width:725px;height:748px;background:#FFFFFF;" version="1.1" viewBox="0 0 725 748" width="725px" zoomAndPan="magnify"><defs/><g><rect fill="none" height="46.2656" style="stroke:#000000;stroke-width:1.5;" width="429.2363" x="10" y="299.0938"/><rect fill="none" height="117.5313" style="stroke:#000000;stroke-width:1.5;" width="622.166" x="10" y="359.3594"/><rect fill="none" height="159.6641" style="stroke:#000000;stroke-width:1.5;" width="625.2891" x="10" y="490.8906"/><line style="stroke:#181818;stroke-width:0.5;stroke-dasharray:5.0,5.0;" x1="45" x2="45" y1="81.2969" y2="667.5547"/><line style="stroke:#181818;stroke-width:0.5;stroke-dasharray:5.0,5.0;" x1="396.0303" x2="396.0303" y1="81.2969" y2="667.5547"/><text fill="#000000" font-family="sans-serif" font-size="14" lengthAdjust="spacing" textLength="44.8643" x="20" y="77.9951">Admin</text><ellipse cx="45.4321" cy="13.5" fill="#E2E2F0" rx="8" ry="8" style="stroke:#181818;stroke-width:0.5;"/><path d="M45.4321,21.5 L45.4321,48.5 M32.4321,29.5 L58.4321,29.5 M45.4321,48.5 L32.4321,63.5 M45.4321,48.5 L58.4321,63.5 " fill="none" style="stroke:#181818;stroke-width:0.5;"/><text fill="#000000" font-family="sans-serif" font-size="14" lengthAdjust="spacing" textLength="44.8643" x="20" y="679.5498">Admin</text><ellipse cx="45.4321" cy="691.3516" fill="#E2E2F0" rx="8" ry="8" style="stroke:#181818;stroke-width:0.5;"/><path d="M45.4321,699.3516 L45.4321,726.3516 M32.4321,707.3516 L58.4321,707.3516 M45.4321,726.3516 L32.4321,741.3516 M45.4321,726.3516 L58.4321,741.3516 " fill="none" style="stroke:#181818;stroke-width:0.5;"/><rect fill="#E2E2F0" height="30.2969" rx="2.5" ry="2.5" style="stroke:#181818;stroke-width:0.5;" width="66.2061" x="363.0303" y="50"/><text fill="#000000" font-family="sans-serif" font-size="14" lengthAdjust="spacing" textLength="52.2061" x="370.0303" y="69.9951">System</text><rect fill="#E2E2F0" height="30.2969" rx="2.5" ry="2.5" style="stroke:#181818;stroke-width:0.5;" width="66.2061" x="363.0303" y="666.5547"/><text fill="#000000" font-family="sans-serif" font-size="14" lengthAdjust="spacing" textLength="52.2061" x="370.0303" y="686.5498">System</text><polygon fill="#181818" points="384.1333,108.4297,394.1333,112.4297,384.1333,116.4297,388.1333,112.4297" style="stroke:#181818;stroke-width:1.0;"/><line style="stroke:#181818;stroke-width:1.0;" x1="45.4321" x2="390.1333" y1="112.4297" y2="112.4297"/><text fill="#000000" font-family="sans-serif" font-size="13" lengthAdjust="spacing" textLength="326.7012" x="52.4321" y="107.3638">"Search staff profiles (name/email/specialization)"</text><line style="stroke:#181818;stroke-width:1.0;" x1="396.1333" x2="438.1333" y1="141.5625" y2="141.5625"/><line style="stroke:#181818;stroke-width:1.0;" x1="438.1333" x2="438.1333" y1="141.5625" y2="154.5625"/><line style="stroke:#181818;stroke-width:1.0;" x1="397.1333" x2="438.1333" y1="154.5625" y2="154.5625"/><polygon fill="#181818" points="407.1333,150.5625,397.1333,154.5625,407.1333,158.5625,403.1333,154.5625" style="stroke:#181818;stroke-width:1.0;"/><text fill="#000000" font-family="sans-serif" font-size="13" lengthAdjust="spacing" textLength="315.3135" x="403.1333" y="136.4966">"Retrieve staff profiles matching search criteria"</text><polygon fill="#181818" points="56.4321,179.6953,46.4321,183.6953,56.4321,187.6953,52.4321,183.6953" style="stroke:#181818;stroke-width:1.0;"/><line style="stroke:#181818;stroke-width:1.0;" x1="50.4321" x2="395.1333" y1="183.6953" y2="183.6953"/><text fill="#000000" font-family="sans-serif" font-size="13" lengthAdjust="spacing" textLength="185.1421" x="62.4321" y="178.6294">"Display list of staff profiles"</text><polygon fill="#181818" points="384.1333,208.8281,394.1333,212.8281,384.1333,216.8281,388.1333,212.8281" style="stroke:#181818;stroke-width:1.0;"/><line style="stroke:#181818;stroke-width:1.0;" x1="45.4321" x2="390.1333" y1="212.8281" y2="212.8281"/><text fill="#000000" font-family="sans-serif" font-size="13" lengthAdjust="spacing" textLength="246.2954" x="52.4321" y="207.7622">"Select a staff profile to interact with"</text><line style="stroke:#181818;stroke-width:1.0;" x1="396.1333" x2="438.1333" y1="241.9609" y2="241.9609"/><line style="stroke:#181818;stroke-width:1.0;" x1="438.1333" x2="438.1333" y1="241.9609" y2="254.9609"/><line style="stroke:#181818;stroke-width:1.0;" x1="397.1333" x2="438.1333" y1="254.9609" y2="254.9609"/><polygon fill="#181818" points="407.1333,250.9609,397.1333,254.9609,407.1333,258.9609,403.1333,254.9609" style="stroke:#181818;stroke-width:1.0;"/><text fill="#000000" font-family="sans-serif" font-size="13" lengthAdjust="spacing" textLength="268.4487" x="403.1333" y="236.895">"Retrieve details of selected staff profile"</text><polygon fill="#181818" points="56.4321,280.0938,46.4321,284.0938,56.4321,288.0938,52.4321,284.0938" style="stroke:#181818;stroke-width:1.0;"/><line style="stroke:#181818;stroke-width:1.0;" x1="50.4321" x2="395.1333" y1="284.0938" y2="284.0938"/><text fill="#000000" font-family="sans-serif" font-size="13" lengthAdjust="spacing" textLength="185.9229" x="62.4321" y="279.0278">"Display staff profile details"</text><path d="M10,299.0938 L79.4512,299.0938 L79.4512,306.2266 L69.4512,316.2266 L10,316.2266 L10,299.0938 " fill="#EEEEEE" style="stroke:#000000;stroke-width:1.5;"/><rect fill="none" height="46.2656" style="stroke:#000000;stroke-width:1.5;" width="429.2363" x="10" y="299.0938"/><text fill="#000000" font-family="sans-serif" font-size="13" font-weight="bold" lengthAdjust="spacing" textLength="24.4512" x="25" y="312.1606">opt</text><text fill="#000000" font-family="sans-serif" font-size="11" font-weight="bold" lengthAdjust="spacing" textLength="84.6216" x="94.4512" y="311.3042">[View Profile]</text><polygon fill="#181818" points="384.1333,333.3594,394.1333,337.3594,384.1333,341.3594,388.1333,337.3594" style="stroke:#181818;stroke-width:1.0;"/><line style="stroke:#181818;stroke-width:1.0;" x1="45.4321" x2="390.1333" y1="337.3594" y2="337.3594"/><text fill="#000000" font-family="sans-serif" font-size="13" lengthAdjust="spacing" textLength="121.6973" x="52.4321" y="332.2935">"View staff profile"</text><path d="M10,359.3594 L79.4512,359.3594 L79.4512,366.4922 L69.4512,376.4922 L10,376.4922 L10,359.3594 " fill="#EEEEEE" style="stroke:#000000;stroke-width:1.5;"/><rect fill="none" height="117.5313" style="stroke:#000000;stroke-width:1.5;" width="622.166" x="10" y="359.3594"/><text fill="#000000" font-family="sans-serif" font-size="13" font-weight="bold" lengthAdjust="spacing" textLength="24.4512" x="25" y="372.4263">opt</text><text fill="#000000" font-family="sans-serif" font-size="11" font-weight="bold" lengthAdjust="spacing" textLength="79.1323" x="94.4512" y="371.5698">[Edit Profile]</text><polygon fill="#181818" points="384.1333,393.625,394.1333,397.625,384.1333,401.625,388.1333,397.625" style="stroke:#181818;stroke-width:1.0;"/><line style="stroke:#181818;stroke-width:1.0;" x1="45.4321" x2="390.1333" y1="397.625" y2="397.625"/><text fill="#000000" font-family="sans-serif" font-size="13" lengthAdjust="spacing" textLength="115.7368" x="52.4321" y="392.5591">"Edit staff profile"</text><line style="stroke:#181818;stroke-width:1.0;" x1="396.1333" x2="438.1333" y1="426.7578" y2="426.7578"/><line style="stroke:#181818;stroke-width:1.0;" x1="438.1333" x2="438.1333" y1="426.7578" y2="439.7578"/><line style="stroke:#181818;stroke-width:1.0;" x1="397.1333" x2="438.1333" y1="439.7578" y2="439.7578"/><polygon fill="#181818" points="407.1333,435.7578,397.1333,439.7578,407.1333,443.7578,403.1333,439.7578" style="stroke:#181818;stroke-width:1.0;"/><text fill="#000000" font-family="sans-serif" font-size="13" lengthAdjust="spacing" textLength="217.0327" x="403.1333" y="421.6919">"Update staff profile information"</text><polygon fill="#181818" points="56.4321,464.8906,46.4321,468.8906,56.4321,472.8906,52.4321,468.8906" style="stroke:#181818;stroke-width:1.0;"/><line style="stroke:#181818;stroke-width:1.0;" x1="50.4321" x2="395.1333" y1="468.8906" y2="468.8906"/><text fill="#000000" font-family="sans-serif" font-size="13" lengthAdjust="spacing" textLength="167.0957" x="62.4321" y="463.8247">"Confirm profile updated"</text><path d="M10,490.8906 L79.4512,490.8906 L79.4512,498.0234 L69.4512,508.0234 L10,508.0234 L10,490.8906 " fill="#EEEEEE" style="stroke:#000000;stroke-width:1.5;"/><rect fill="none" height="159.6641" style="stroke:#000000;stroke-width:1.5;" width="625.2891" x="10" y="490.8906"/><text fill="#000000" font-family="sans-serif" font-size="13" font-weight="bold" lengthAdjust="spacing" textLength="24.4512" x="25" y="503.9575">opt</text><text fill="#000000" font-family="sans-serif" font-size="11" font-weight="bold" lengthAdjust="spacing" textLength="121.5908" x="94.4512" y="503.1011">[Deactivate Profile]</text><polygon fill="#181818" points="384.1333,525.1563,394.1333,529.1563,384.1333,533.1563,388.1333,529.1563" style="stroke:#181818;stroke-width:1.0;"/><line style="stroke:#181818;stroke-width:1.0;" x1="45.4321" x2="390.1333" y1="529.1563" y2="529.1563"/><text fill="#000000" font-family="sans-serif" font-size="13" lengthAdjust="spacing" textLength="161.1479" x="52.4321" y="524.0903">"Deactivate staff profile"</text><line style="stroke:#181818;stroke-width:1.0;" x1="396.1333" x2="438.1333" y1="558.2891" y2="558.2891"/><line style="stroke:#181818;stroke-width:1.0;" x1="438.1333" x2="438.1333" y1="558.2891" y2="571.2891"/><line style="stroke:#181818;stroke-width:1.0;" x1="397.1333" x2="438.1333" y1="571.2891" y2="571.2891"/><polygon fill="#181818" points="407.1333,567.2891,397.1333,571.2891,407.1333,575.2891,403.1333,571.2891" style="stroke:#181818;stroke-width:1.0;"/><text fill="#000000" font-family="sans-serif" font-size="13" lengthAdjust="spacing" textLength="220.1558" x="403.1333" y="553.2231">"Deactivate selected staff profile"</text><line style="stroke:#181818;stroke-width:1.0;" x1="396.1333" x2="438.1333" y1="600.4219" y2="600.4219"/><line style="stroke:#181818;stroke-width:1.0;" x1="438.1333" x2="438.1333" y1="600.4219" y2="613.4219"/><line style="stroke:#181818;stroke-width:1.0;" x1="397.1333" x2="438.1333" y1="613.4219" y2="613.4219"/><polygon fill="#181818" points="407.1333,609.4219,397.1333,613.4219,407.1333,617.4219,403.1333,613.4219" style="stroke:#181818;stroke-width:1.0;"/><text fill="#000000" font-family="sans-serif" font-size="13" lengthAdjust="spacing" textLength="186.6021" x="403.1333" y="595.356">"Record deactivation action"</text><polygon fill="#181818" points="56.4321,638.5547,46.4321,642.5547,56.4321,646.5547,52.4321,642.5547" style="stroke:#181818;stroke-width:1.0;"/><line style="stroke:#181818;stroke-width:1.0;" x1="50.4321" x2="395.1333" y1="642.5547" y2="642.5547"/><text fill="#000000" font-family="sans-serif" font-size="13" lengthAdjust="spacing" textLength="197.7231" x="62.4321" y="637.4888">"Confirmation of deactivation"</text><!--SRC=[VP7DReCm48JlFCMAKtkeSk-XKjNqNWMbzvMzBYlX7zbBelJfQmnA044vMUnyuvarAl4HwdTjsTM02VegO1HM7D09rCqj2TaoQQggXvStQE0r_oUCgeKaQ0o4w0rtbE39eQK3MUJka08fnev_KTYxvxfgxl29939TQ8rR5DMo-u4qkgl8Gf5nOlk1FN8A7TwWuoJWpSgYNcRiI0dWKWFYWLtsnJoxihIRoJH9Bf7A3SM6zD9cAzFodiaYH_91u9lf2b_Zg8ByFNAMqSgSd1wvJysomvNHYXiKZphde55MQyxbZO-slCfCNufyU6SushkqBxoUnJbINXjV1jVjK3F1lz7ckfq5Bu4JAHzrtkh4vVWm77TRZ9ByW7EaLFa3]--></g></svg>